<?xml version="1.0" encoding="us-ascii" standalone="no"?><svg xmlns="http://www.w3.org/2000/svg" xmlns:xlink="http://www.w3.org/1999/xlink" contentStyleType="text/css" height="270px" preserveAspectRatio="none" style="width:649px;height:270px;background:#FFFFFF;" version="1.1" viewBox="0 0 649 270" width="649px" zoomAndPan="magnify"><defs/><g><!--cluster Blockchain--><g id="cluster_Blockchain"><path d="M65.5,6 L143.5,6 A3.75,3.75 0 0 1 146,8.5 L153,28.4883 L229.5,28.4883 A2.5,2.5 0 0 1 232,30.9883 L232,100.99 A2.5,2.5 0 0 1 229.5,103.49 L65.5,103.49 A2.5,2.5 0 0 1 63,100.99 L63,8.5 A2.5,2.5 0 0 1 65.5,6 " fill="none" style="stroke:#000000;stroke-width:1.5;"/><line style="stroke:#000000;stroke-width:1.5;" x1="63" x2="153" y1="28.4883" y2="28.4883"/><text fill="#000000" font-family="sans-serif" font-size="14" font-weight="bold" lengthAdjust="spacing" textLength="77" x="67" y="21.5352">Blockchain</text></g><!--cluster Worker--><g id="cluster_Worker"><polygon fill="none" points="244,153.49,254,143.49,416,143.49,416,235.98,406,245.98,244,245.98,244,153.49" style="stroke:#181818;stroke-width:1.0;"/><line style="stroke:#181818;stroke-width:1.0;" x1="406" x2="416" y1="153.49" y2="143.49"/><line style="stroke:#181818;stroke-width:1.0;" x1="244" x2="406" y1="153.49" y2="153.49"/><line style="stroke:#181818;stroke-width:1.0;" x1="406" x2="406" y1="153.49" y2="245.98"/><text fill="#000000" font-family="sans-serif" font-size="14" font-weight="bold" lengthAdjust="spacing" textLength="51" x="300.5" y="170.0252">Worker</text></g><!--cluster Backend--><g id="cluster_Backend"><polygon fill="none" points="496,145.49,506,135.49,632,135.49,632,243.98,622,253.98,496,253.98,496,145.49" style="stroke:#181818;stroke-width:1.0;"/><line style="stroke:#181818;stroke-width:1.0;" x1="622" x2="632" y1="145.49" y2="135.49"/><line style="stroke:#181818;stroke-width:1.0;" x1="496" x2="622" y1="145.49" y2="145.49"/><line style="stroke:#181818;stroke-width:1.0;" x1="622" x2="622" y1="145.49" y2="253.98"/><text fill="#000000" font-family="sans-serif" font-size="14" font-weight="bold" lengthAdjust="spacing" textLength="59" x="530.5" y="162.0252">Backend</text></g><!--entity New block--><g id="elem_New block"><ellipse cx="88" cy="64.25" fill="#F1F1F1" rx="8" ry="8" style="stroke:#181818;stroke-width:0.5;"/><text fill="#000000" font-family="sans-serif" font-size="14" lengthAdjust="spacing" textLength="70" x="53" y="94.7852">New block</text></g><!--entity Events--><g id="elem_Events"><rect fill="#F1F1F1" height="46.4883" rx="2.5" ry="2.5" style="stroke:#181818;stroke-width:0.5;" width="84" x="132" y="41"/><rect fill="#F1F1F1" height="10" style="stroke:#181818;stroke-width:0.5;" width="15" x="196" y="46"/><rect fill="#F1F1F1" height="2" style="stroke:#181818;stroke-width:0.5;" width="4" x="194" y="48"/><rect fill="#F1F1F1" height="2" style="stroke:#181818;stroke-width:0.5;" width="4" x="194" y="52"/><text fill="#000000" font-family="sans-serif" font-size="14" lengthAdjust="spacing" textLength="44" x="147" y="74.5352">Events</text></g><!--entity Event handlers--><g id="elem_Event handlers"><rect fill="#F1F1F1" height="46.4883" rx="2.5" ry="2.5" style="stroke:#181818;stroke-width:0.5;" width="141" x="259.5" y="183.49"/><rect fill="#F1F1F1" height="10" style="stroke:#181818;stroke-width:0.5;" width="15" x="380.5" y="188.49"/><rect fill="#F1F1F1" height="2" style="stroke:#181818;stroke-width:0.5;" width="4" x="378.5" y="190.49"/><rect fill="#F1F1F1" height="2" style="stroke:#181818;stroke-width:0.5;" width="4" x="378.5" y="194.49"/><text fill="#000000" font-family="sans-serif" font-size="14" lengthAdjust="spacing" textLength="101" x="274.5" y="217.0252">Event handlers</text></g><!--entity APIs--><g id="elem_APIs"><rect fill="#F1F1F1" height="46.4883" rx="2.5" ry="2.5" style="stroke:#181818;stroke-width:0.5;" width="69" x="539.5" y="183.49"/><rect fill="#F1F1F1" height="10" style="stroke:#181818;stroke-width:0.5;" width="15" x="588.5" y="188.49"/><rect fill="#F1F1F1" height="2" style="stroke:#181818;stroke-width:0.5;" width="4" x="586.5" y="190.49"/><rect fill="#F1F1F1" height="2" style="stroke:#181818;stroke-width:0.5;" width="4" x="586.5" y="194.49"/><text fill="#000000" font-family="sans-serif" font-size="14" lengthAdjust="spacing" textLength="29" x="554.5" y="217.0252">APIs</text></g><!--entity MongoDB--><g id="elem_MongoDB"><path d="M444,51.5 C444,41.5 487,41.5 487,41.5 C487,41.5 530,41.5 530,51.5 L530,76.9883 C530,86.9883 487,86.9883 487,86.9883 C487,86.9883 444,86.9883 444,76.9883 L444,51.5 " fill="#F1F1F1" style="stroke:#181818;stroke-width:0.5;"/><path d="M444,51.5 C444,61.5 487,61.5 487,61.5 C487,61.5 530,61.5 530,51.5 " fill="none" style="stroke:#181818;stroke-width:0.5;"/><text fill="#000000" font-family="sans-serif" font-size="14" lengthAdjust="spacing" textLength="66" x="454" y="79.0352">MongoDB</text></g><g id="elem_EventHandleNote"><path d="M251,36.28 L251,92.2116 A0,0 0 0 0 251,92.2116 L326,92.2116 L330,183.36 L334,92.2116 L409,92.2116 A0,0 0 0 0 409,92.2116 L409,46.28 L399,36.28 L251,36.28 A0,0 0 0 0 251,36.28 " fill="#FEFFDD" style="stroke:#181818;stroke-width:0.5;"/><path d="M399,36.28 L399,46.28 L409,46.28 L399,36.28 " fill="#FEFFDD" style="stroke:#181818;stroke-width:0.5;"/><text fill="#000000" font-family="sans-serif" font-size="13" lengthAdjust="spacing" textLength="127" x="257" y="53.8484">mint, transfer, burn,</text><text fill="#000000" font-family="sans-serif" font-size="13" lengthAdjust="spacing" textLength="137" x="257" y="69.1589">metdata, trade, game,</text><text fill="#000000" font-family="sans-serif" font-size="13" lengthAdjust="spacing" textLength="104" x="257" y="84.4695">collecction, etc..</text></g><!--entity HTTP--><g id="elem_HTTP"><ellipse cx="592" cy="64.25" fill="#F1F1F1" rx="8" ry="8" style="stroke:#181818;stroke-width:0.5;"/><text fill="#000000" font-family="sans-serif" font-size="14" lengthAdjust="spacing" textLength="36" x="574" y="94.7852">HTTP</text></g><!--link New block to Events--><g id="link_New block_Events"><path d="M97.2,64.98 C105.61,64.98 118.67,64.98 131.65,64.98 " fill="none" id="New block-Events" style="stroke:#181818;stroke-width:1.0;"/></g><!--link Events to Event handlers--><g id="link_Events_Event handlers"><path d="M174,87.82 C174,128.36 174,206.98 174,206.98 C174,206.98 212.03,206.98 253.3,206.98 " fill="none" id="Events-to-Event handlers" style="stroke:#181818;stroke-width:1.0;"/><polygon fill="#181818" points="259.3,206.98,250.3,202.98,254.3,206.98,250.3,210.98,259.3,206.98" style="stroke:#181818;stroke-width:1.0;"/><text fill="#000000" font-family="sans-serif" font-size="13" lengthAdjust="spacing" textLength="166" x="7" y="186.6184">Process blockchain Events</text></g><!--link HTTP to APIs--><g id="link_HTTP_APIs"><path d="M586.75,73.16 C586.75,94.85 586.75,144.96 586.75,177.13 " fill="none" id="HTTP-to-APIs" style="stroke:#181818;stroke-width:1.0;stroke-dasharray:7.0,7.0;"/><polygon fill="#181818" points="586.75,183.13,590.75,174.13,586.75,178.13,582.75,174.13,586.75,183.13" style="stroke:#181818;stroke-width:1.0;"/><text fill="#000000" font-family="sans-serif" font-size="13" lengthAdjust="spacing" textLength="104" x="481.75" y="124.7184">use RESTful APIs</text></g><!--link Event handlers to MongoDB--><g id="link_Event handlers_MongoDB"><path d="M400.83,198.98 C441.01,198.98 483.33,198.98 483.33,198.98 C483.33,198.98 483.33,131.93 483.33,93.41 " fill="none" id="Event handlers-to-MongoDB" style="stroke:#181818;stroke-width:1.0;"/><polygon fill="#181818" points="483.33,87.41,479.33,96.41,483.33,92.41,487.33,96.41,483.33,87.41" style="stroke:#181818;stroke-width:1.0;"/></g><!--link MongoDB to Event handlers--><g id="link_MongoDB_Event handlers"><path d="M463.67,87.2 C463.67,123.72 463.67,190.98 463.67,190.98 C463.67,190.98 438.81,190.98 406.75,190.98 " fill="none" id="MongoDB-to-Event handlers" style="stroke:#181818;stroke-width:1.0;"/><polygon fill="#181818" points="400.75,190.98,409.75,194.98,405.75,190.98,409.75,186.98,400.75,190.98" style="stroke:#181818;stroke-width:1.0;"/></g><!--link Backend to MongoDB--><g id="link_Backend_MongoDB"><path d="M517.5,135.3406 C517.5,134.5087 517.5,133.6768 517.5,132.8453 C517.5,129.5197 517.5,126.2021 517.5,122.9214 C517.5,109.7988 517.5,103.2675 517.5,93.18 " fill="none" id="Backend-to-MongoDB" style="stroke:#181818;stroke-width:1.0;"/><polygon fill="#181818" points="517.5,87.18,513.5,96.18,517.5,92.18,521.5,96.18,517.5,87.18" style="stroke:#181818;stroke-width:1.0;"/></g><!--link MongoDB to Backend--><g id="link_MongoDB_Backend"><path d="M504,87.46 C504,97.08 504,108.8875 504,121.2939 C504,124.3955 504,127.5345 504,130.6862 C504,132.262 504,127.841 504,129.42 " fill="none" id="MongoDB-to-Backend" style="stroke:#181818;stroke-width:1.0;"/><polygon fill="#181818" points="504,135.42,508,126.42,504,130.42,500,126.42,504,135.42" style="stroke:#181818;stroke-width:1.0;"/></g><!--SRC=[RP3DQiCm48JFsQSOT7Ry03q46Xf83msXDVGGUb3aJMmiIq5IMahfktSjfuOqlIspt-pFnAvr9nrq3ziwJfydXW-fyNJIfjD7XbfQRphJwDOfV16WDlo1_I0gpB5RlRDByOs-oVbQy5SVEWuZEZRHQ5TR3W818uxvV05rtLMumpPump6Eu_FEYq6Sia5M98QEexZEner8XBvrgK0AsiK3XmBxSt05HETKwwHpg-O2HzrpGJ3UMZOcjLueJgOiYLsDOJpHd-4eovjJwVBiKa8Iu_3jR7U_VSmvhAjgAwO51a6UEaV6y-gbEfnjbeY6a_PQPFNatT4_BFE0cpnoI1CXm5J_5n_DX9WEklBUM7ynkVO7]--></g></svg>