<?xml version="1.0" encoding="us-ascii" standalone="no"?><svg xmlns="http://www.w3.org/2000/svg" xmlns:xlink="http://www.w3.org/1999/xlink" contentStyleType="text/css" height="413px" preserveAspectRatio="none" style="width:536px;height:413px;background:#FFFFFF;" version="1.1" viewBox="0 0 536 413" width="536px" zoomAndPan="magnify"><defs/><g><!--cluster Blockchain--><g id="cluster_Blockchain"><path d="M18.5,309.45 L96.5,309.45 A3.75,3.75 0 0 1 99,311.95 L106,331.9383 L182.5,331.9383 A2.5,2.5 0 0 1 185,334.4383 L185,404.44 A2.5,2.5 0 0 1 182.5,406.94 L18.5,406.94 A2.5,2.5 0 0 1 16,404.44 L16,311.95 A2.5,2.5 0 0 1 18.5,309.45 " fill="none" style="stroke:#000000;stroke-width:1.5;"/><line style="stroke:#000000;stroke-width:1.5;" x1="16" x2="106" y1="331.9383" y2="331.9383"/><text fill="#000000" font-family="sans-serif" font-size="14" font-weight="bold" lengthAdjust="spacing" textLength="77" x="20" y="324.9852">Blockchain</text></g><!--cluster Worker--><g id="cluster_Worker"><polygon fill="none" points="41,151.96,51,141.96,213,141.96,213,234.45,203,244.45,41,244.45,41,151.96" style="stroke:#181818;stroke-width:1.0;"/><line style="stroke:#181818;stroke-width:1.0;" x1="203" x2="213" y1="151.96" y2="141.96"/><line style="stroke:#181818;stroke-width:1.0;" x1="41" x2="203" y1="151.96" y2="151.96"/><line style="stroke:#181818;stroke-width:1.0;" x1="203" x2="203" y1="151.96" y2="244.45"/><text fill="#000000" font-family="sans-serif" font-size="14" font-weight="bold" lengthAdjust="spacing" textLength="51" x="97.5" y="168.4952">Worker</text></g><!--cluster Backend--><g id="cluster_Backend"><polygon fill="none" points="345,143.96,355,133.96,481,133.96,481,242.45,471,252.45,345,252.45,345,143.96" style="stroke:#181818;stroke-width:1.0;"/><line style="stroke:#181818;stroke-width:1.0;" x1="471" x2="481" y1="143.96" y2="133.96"/><line style="stroke:#181818;stroke-width:1.0;" x1="345" x2="471" y1="143.96" y2="143.96"/><line style="stroke:#181818;stroke-width:1.0;" x1="471" x2="471" y1="143.96" y2="252.45"/><text fill="#000000" font-family="sans-serif" font-size="14" font-weight="bold" lengthAdjust="spacing" textLength="59" x="379.5" y="160.4952">Backend</text></g><!--entity New block--><g id="elem_New block"><ellipse cx="41" cy="367.7" fill="#F1F1F1" rx="8" ry="8" style="stroke:#181818;stroke-width:0.5;"/><text fill="#000000" font-family="sans-serif" font-size="14" lengthAdjust="spacing" textLength="70" x="6" y="398.2352">New block</text></g><!--entity Events--><g id="elem_Events"><rect fill="#F1F1F1" height="46.4883" rx="2.5" ry="2.5" style="stroke:#181818;stroke-width:0.5;" width="84" x="85" y="344.45"/><rect fill="#F1F1F1" height="10" style="stroke:#181818;stroke-width:0.5;" width="15" x="149" y="349.45"/><rect fill="#F1F1F1" height="2" style="stroke:#181818;stroke-width:0.5;" width="4" x="147" y="351.45"/><rect fill="#F1F1F1" height="2" style="stroke:#181818;stroke-width:0.5;" width="4" x="147" y="355.45"/><text fill="#000000" font-family="sans-serif" font-size="14" lengthAdjust="spacing" textLength="44" x="100" y="377.9852">Events</text></g><!--entity Event handlers--><g id="elem_Event handlers"><rect fill="#F1F1F1" height="46.4883" rx="2.5" ry="2.5" style="stroke:#181818;stroke-width:0.5;" width="141" x="56.5" y="181.96"/><rect fill="#F1F1F1" height="10" style="stroke:#181818;stroke-width:0.5;" width="15" x="177.5" y="186.96"/><rect fill="#F1F1F1" height="2" style="stroke:#181818;stroke-width:0.5;" width="4" x="175.5" y="188.96"/><rect fill="#F1F1F1" height="2" style="stroke:#181818;stroke-width:0.5;" width="4" x="175.5" y="192.96"/><text fill="#000000" font-family="sans-serif" font-size="14" lengthAdjust="spacing" textLength="101" x="71.5" y="215.4952">Event handlers</text></g><!--entity APIs--><g id="elem_APIs"><rect fill="#F1F1F1" height="46.4883" rx="2.5" ry="2.5" style="stroke:#181818;stroke-width:0.5;" width="69" x="388.5" y="181.96"/><rect fill="#F1F1F1" height="10" style="stroke:#181818;stroke-width:0.5;" width="15" x="437.5" y="186.96"/><rect fill="#F1F1F1" height="2" style="stroke:#181818;stroke-width:0.5;" width="4" x="435.5" y="188.96"/><rect fill="#F1F1F1" height="2" style="stroke:#181818;stroke-width:0.5;" width="4" x="435.5" y="192.96"/><text fill="#000000" font-family="sans-serif" font-size="14" lengthAdjust="spacing" textLength="29" x="403.5" y="215.4952">APIs</text></g><!--entity MongoDB--><g id="elem_MongoDB"><path d="M232,192.46 C232,182.46 275,182.46 275,182.46 C275,182.46 318,182.46 318,192.46 L318,217.9483 C318,227.9483 275,227.9483 275,227.9483 C275,227.9483 232,227.9483 232,217.9483 L232,192.46 " fill="#F1F1F1" style="stroke:#181818;stroke-width:0.5;"/><path d="M232,192.46 C232,202.46 275,202.46 275,202.46 C275,202.46 318,202.46 318,192.46 " fill="none" style="stroke:#181818;stroke-width:0.5;"/><text fill="#000000" font-family="sans-serif" font-size="14" lengthAdjust="spacing" textLength="66" x="242" y="219.9952">MongoDB</text></g><g id="elem_EventHandleNote"><path d="M48,6 L48,61.9316 A0,0 0 0 0 48,61.9316 L123,61.9316 L127,181.69 L131,61.9316 L206,61.9316 A0,0 0 0 0 206,61.9316 L206,16 L196,6 L48,6 A0,0 0 0 0 48,6 " fill="#FEFFDD" style="stroke:#181818;stroke-width:0.5;"/><path d="M196,6 L196,16 L206,16 L196,6 " fill="#FEFFDD" style="stroke:#181818;stroke-width:0.5;"/><text fill="#000000" font-family="sans-serif" font-size="13" lengthAdjust="spacing" textLength="127" x="54" y="23.5684">mint, transfer, burn,</text><text fill="#000000" font-family="sans-serif" font-size="13" lengthAdjust="spacing" textLength="137" x="54" y="38.8789">metdata, trade, game,</text><text fill="#000000" font-family="sans-serif" font-size="13" lengthAdjust="spacing" textLength="104" x="54" y="54.1895">collecction, etc..</text></g><!--entity HTTP--><g id="elem_HTTP"><ellipse cx="423" cy="33.96" fill="#F1F1F1" rx="8" ry="8" style="stroke:#181818;stroke-width:0.5;"/><text fill="#000000" font-family="sans-serif" font-size="14" lengthAdjust="spacing" textLength="36" x="405" y="64.4952">HTTP</text></g><!--link New block to Events--><g id="link_New block_Events"><path d="M50.41,367.7 C61.78,367.7 73.15,367.7 84.51,367.7 " fill="none" id="New block-Events" style="stroke:#181818;stroke-width:1.0;"/></g><!--reverse link Event handlers to Events--><g id="link_Event handlers_Events"><path d="M127,234.86 C127,265.45 127,313.63 127,344.16 " fill="none" id="Event handlers-backto-Events" style="stroke:#181818;stroke-width:1.0;"/><polygon fill="#181818" points="127,228.86,123,237.86,127,233.86,131,237.86,127,228.86" style="stroke:#181818;stroke-width:1.0;"/><text fill="#000000" font-family="sans-serif" font-size="13" lengthAdjust="spacing" textLength="166" x="128" y="290.0184">Process blockchain Events</text></g><!--link HTTP to APIs--><g id="link_HTTP_APIs"><path d="M423,42.68 C423,67.05 423,137.11 423,175.52 " fill="none" id="HTTP-to-APIs" style="stroke:#181818;stroke-width:1.0;stroke-dasharray:7.0,7.0;"/><polygon fill="#181818" points="423,181.52,427,172.52,423,176.52,419,172.52,423,181.52" style="stroke:#181818;stroke-width:1.0;"/><text fill="#000000" font-family="sans-serif" font-size="13" lengthAdjust="spacing" textLength="104" x="424" y="106.5284">use RESTful APIs</text></g><!--link Event handlers to MongoDB--><g id="link_Event handlers_MongoDB"><path d="M203.82,205.21 C215.08,205.21 214.33,205.21 225.59,205.21 " fill="none" id="Event handlers-MongoDB" style="stroke:#181818;stroke-width:1.0;"/><polygon fill="#181818" points="197.82,205.21,206.82,209.21,202.82,205.21,206.82,201.21,197.82,205.21" style="stroke:#181818;stroke-width:1.0;"/><polygon fill="#181818" points="231.59,205.21,222.59,201.21,226.59,205.21,222.59,209.21,231.59,205.21" style="stroke:#181818;stroke-width:1.0;"/></g><!--link Backend to MongoDB--><g id="link_Backend_MongoDB"><path d="M338.9005,205.21 C338.547,205.21 344.0611,205.21 343.7077,205.21 C340.8803,205.21 338.0531,205.21 335.2263,205.21 C329.5725,205.21 329.92,205.21 324.27,205.21 " fill="none" id="Backend-MongoDB" style="stroke:#181818;stroke-width:1.0;"/><polygon fill="#181818" points="344.9005,205.21,335.9005,201.21,339.9005,205.21,335.9005,209.21,344.9005,205.21" style="stroke:#181818;stroke-width:1.0;"/><polygon fill="#181818" points="318.27,205.21,327.27,209.21,323.27,205.21,327.27,201.21,318.27,205.21" style="stroke:#181818;stroke-width:1.0;"/></g><!--SRC=[RP31JiCm44JFx5UCV4xo0GXL8g9IEL159HA7YeFZRDCegLtP3XmG_yx6gH05hczcPtRthCsWEuOgHsS6SzIzLVWWG6tv7SqC5NBirsziOtYbJxAk5VkBymFxnRg8E6hRZkp59DFNIE4kpx5a0BUel3CSmfAVIY-YZ4g5T4I63WlSf92j8CAfjp53zDg60_iCpUHj1k4SMnrrabhEqEaJPmJZnf6DYRqJ5qTJ5CIsnHnFz2iSHV5dRRfSMygNP70-zsP_NpscHspgkfAX5MOWHqs1iLi_ruTfJ8XeNgdHWjMJivrxA5F0FxzP_N107DzzLv9qVW40]--></g></svg>